<?xml version="1.0" encoding="utf-8"?>
<!-- Generator: Adobe Illustrator 16.0.0, SVG Export Plug-In . SVG Version: 6.00 Build 0)  -->
<!DOCTYPE svg PUBLIC "-//W3C//DTD SVG 1.1//EN" "http://www.w3.org/Graphics/SVG/1.1/DTD/svg11.dtd">
<svg version="1.1" id="Layer_1" xmlns="http://www.w3.org/2000/svg" xmlns:xlink="http://www.w3.org/1999/xlink" x="0px" y="0px"
	 width="120px" height="120px" viewBox="0 0 120 120" enable-background="new 0 0 120 120" xml:space="preserve">
<g>
	<g>
		<path fill="#857550" d="M21.458,33.198c0.096,0.069,0.207,0.104,0.328,0.108l0.091-0.007c0.15-0.025,0.281-0.114,0.359-0.227
			c0.146-0.211,0.293-0.414,0.441-0.613c0.089-0.118,0.131-0.271,0.106-0.417c-0.022-0.145-0.101-0.276-0.222-0.362l-10.06-7.426
			c-0.229-0.17-0.594-0.12-0.781,0.121c-0.192,0.271-0.394,0.539-0.586,0.81c-0.172,0.251-0.113,0.599,0.13,0.776L21.458,33.198z"/>
		<path fill="#857550" d="M31.052,23.043c0.086,0.116,0.222,0.188,0.372,0.209h0.069c0.12,0.004,0.238-0.04,0.332-0.113
			c0.2-0.155,0.404-0.305,0.614-0.456c0.246-0.18,0.293-0.529,0.113-0.778l-7.429-10.06c-0.173-0.239-0.532-0.292-0.776-0.118
			c-0.249,0.185-0.49,0.377-0.795,0.601c-0.116,0.088-0.192,0.219-0.214,0.362c-0.019,0.157,0.018,0.295,0.106,0.417L31.052,23.043z
			"/>
		<path fill="#857550" d="M25.877,27.765c0.104,0.099,0.242,0.155,0.372,0.15h0.02c0.138,0.005,0.288-0.059,0.397-0.17
			c0.17-0.183,0.345-0.362,0.532-0.547c0.104-0.101,0.16-0.247,0.158-0.387c0-0.146-0.062-0.286-0.163-0.396l-8.842-8.836
			c-0.209-0.214-0.574-0.214-0.785,0.002c-0.236,0.234-0.476,0.468-0.709,0.714c-0.205,0.22-0.195,0.569,0.022,0.781L25.877,27.765z
			"/>
		<path fill="#857550" d="M13.989,65.946l-0.091-0.771c-0.018-0.148-0.086-0.286-0.207-0.375c-0.099-0.081-0.234-0.148-0.404-0.118
			L0.862,66.106c-0.145,0.021-0.28,0.086-0.375,0.207C0.396,66.43,0.352,66.577,0.37,66.72c0.039,0.33,0.076,0.65,0.123,0.983
			c0.018,0.14,0.094,0.274,0.207,0.366c0.096,0.079,0.222,0.109,0.342,0.111l12.472-1.619
			C13.817,66.522,14.031,66.247,13.989,65.946z"/>
		<path fill="#857550" d="M36.866,19.15c0.076,0.125,0.194,0.216,0.338,0.256c0.046,0.02,0.101,0.02,0.152,0.027
			c0.091-0.005,0.18-0.025,0.266-0.069c0.19-0.103,0.392-0.214,0.584-0.318L38.303,19c0.266-0.148,0.366-0.473,0.224-0.751
			L32.697,7.188c-0.139-0.262-0.493-0.37-0.749-0.234c-0.298,0.163-0.591,0.32-0.882,0.478c-0.266,0.148-0.362,0.483-0.214,0.751
			L36.866,19.15z"/>
		<path fill="#857550" d="M17.897,39.26c0.076,0.034,0.165,0.057,0.248,0.052c0.212,0.005,0.399-0.113,0.493-0.295l0.364-0.708
			c0.135-0.271,0.035-0.601-0.231-0.746L7.704,31.738c-0.262-0.138-0.611-0.027-0.749,0.236c-0.15,0.286-0.308,0.579-0.458,0.872
			c-0.131,0.271-0.018,0.603,0.251,0.739L17.897,39.26z"/>
		<path fill="#857550" d="M1.312,50.456l12.32,2.125l0.099,0.007c0.271,0.003,0.5-0.194,0.544-0.45l0.145-0.793
			c0.052-0.311-0.14-0.586-0.443-0.646L1.68,48.414L1.58,48.401c-0.269,0-0.485,0.187-0.538,0.446
			c-0.049,0.239-0.091,0.476-0.135,0.714l-0.044,0.251c-0.025,0.14,0.01,0.284,0.091,0.419C1.044,50.35,1.167,50.426,1.312,50.456z"
			/>
		<path fill="#857550" d="M13.051,59.573h0.01c0.303,0,0.544-0.239,0.554-0.54l0.027-0.781c0-0.303-0.239-0.559-0.542-0.574
			L0.569,57.213c-0.293,0.037-0.525,0.253-0.54,0.539c-0.013,0.33-0.022,0.667-0.03,1c0,0.146,0.054,0.286,0.16,0.392
			c0.101,0.106,0.241,0.167,0.381,0.17L13.051,59.573z"/>
		<path fill="#857550" d="M3.403,41.813l11.863,3.948c0.054,0.021,0.118,0.034,0.175,0.032c0.081,0.002,0.163-0.019,0.251-0.064
			c0.131-0.068,0.231-0.18,0.276-0.318c0.078-0.244,0.167-0.495,0.253-0.744c0.094-0.278-0.057-0.599-0.342-0.697L4.079,39.835
			c-0.276-0.093-0.606,0.052-0.709,0.334c-0.109,0.315-0.217,0.625-0.313,0.934c-0.054,0.14-0.049,0.298,0.02,0.431
			C3.138,41.663,3.261,41.769,3.403,41.813z"/>
		<path fill="#857550" d="M102.155,40.262c-0.051,0.13-0.044,0.28,0.016,0.424c0.107,0.229,0.216,0.465,0.318,0.694
			c0.053,0.143,0.164,0.251,0.302,0.311c0.066,0.027,0.141,0.037,0.204,0.034c0.08-0.002,0.155-0.015,0.225-0.046l11.459-5.002
			c0.139-0.062,0.244-0.177,0.296-0.31c0.054-0.138,0.044-0.288-0.01-0.419c-0.134-0.303-0.265-0.603-0.399-0.899
			c-0.055-0.132-0.168-0.238-0.306-0.295c-0.15-0.057-0.311-0.052-0.429,0.017l-11.379,5.175
			C102.315,40.005,102.213,40.113,102.155,40.262z"/>
		<path fill="#857550" d="M43.494,16.476c0.076,0.035,0.155,0.052,0.238,0.049c0.074,0.003,0.133-0.013,0.194-0.032l0.734-0.266
			c0.288-0.101,0.434-0.417,0.337-0.702l-4.14-11.802c-0.092-0.273-0.382-0.446-0.707-0.343c-0.311,0.111-0.62,0.219-0.926,0.334
			c-0.141,0.049-0.249,0.153-0.312,0.292c-0.06,0.134-0.069,0.284-0.015,0.419l4.317,11.738
			C43.265,16.303,43.37,16.421,43.494,16.476z"/>
		<path fill="#857550" d="M83.742,19.975c0.036,0.133,0.122,0.251,0.256,0.334c0.222,0.131,0.436,0.271,0.659,0.414
			c0.092,0.046,0.182,0.077,0.286,0.074c0.197,0.003,0.373-0.101,0.473-0.261l6.642-10.593c0.074-0.125,0.102-0.283,0.066-0.429
			c-0.036-0.146-0.122-0.271-0.242-0.34c-0.225-0.136-0.441-0.271-0.66-0.404l-0.197-0.123c-0.248-0.151-0.61-0.057-0.754,0.189
			l-6.464,10.716C83.727,19.687,83.707,19.828,83.742,19.975z"/>
		<path fill="#857550" d="M89.44,23.943c0.012,0.148,0.084,0.283,0.197,0.377l0.596,0.504c0.098,0.083,0.227,0.128,0.359,0.131
			c0.163,0,0.311-0.074,0.414-0.197l8.152-9.495c0.191-0.227,0.162-0.579-0.062-0.778c-0.258-0.214-0.505-0.426-0.758-0.634
			c-0.225-0.194-0.599-0.154-0.783,0.067l-7.995,9.62C89.475,23.652,89.428,23.795,89.44,23.943z"/>
		<path fill="#857550" d="M78.51,17.476c0.074,0.035,0.146,0.044,0.235,0.047c0.212,0.002,0.411-0.131,0.503-0.33L84.236,5.73
			c0.062-0.131,0.072-0.281,0.018-0.429c-0.059-0.141-0.163-0.25-0.299-0.305c-0.302-0.131-0.605-0.262-0.907-0.387
			c-0.138-0.059-0.292-0.057-0.432,0c-0.132,0.052-0.24,0.158-0.298,0.293l-4.814,11.551c-0.115,0.278,0.022,0.604,0.298,0.719
			L78.51,17.476z"/>
		<path fill="#857550" d="M104.599,47.264l0.18,0.665c0.07,0.241,0.291,0.406,0.54,0.409c0.047-0.002,0.097-0.004,0.144-0.02
			l12.078-3.234c0.145-0.04,0.265-0.13,0.337-0.256c0.073-0.133,0.094-0.281,0.056-0.421c-0.083-0.291-0.154-0.586-0.242-0.882
			l-0.027-0.089c-0.082-0.283-0.431-0.448-0.686-0.367l-12.001,3.512C104.69,46.667,104.521,46.976,104.599,47.264z"/>
		<path fill="#857550" d="M50.532,14.582l0.827-0.155c0.143-0.027,0.271-0.108,0.354-0.231c0.085-0.123,0.111-0.273,0.085-0.411
			L49.446,1.497c-0.047-0.256-0.273-0.445-0.539-0.448l-0.108,0.015c-0.323,0.054-0.65,0.125-0.976,0.189
			c-0.146,0.027-0.267,0.111-0.357,0.241c-0.076,0.131-0.101,0.281-0.066,0.414l2.546,12.245
			C49.998,14.394,50.25,14.582,50.532,14.582z"/>
		<path fill="#857550" d="M94.491,28.735c-0.01,0.143,0.041,0.288,0.144,0.397c0.122,0.13,0.231,0.271,0.354,0.399l0.147,0.175
			l0.049,0.047c0.102,0.093,0.231,0.146,0.372,0.148c0.136,0.002,0.271-0.046,0.357-0.133l9.462-8.184
			c0.116-0.091,0.185-0.229,0.192-0.379c0.013-0.143-0.04-0.288-0.138-0.395l-0.653-0.753c-0.093-0.111-0.227-0.173-0.41-0.185
			c-0.15,0.01-0.276,0.052-0.373,0.138l-9.324,8.343C94.561,28.452,94.499,28.587,94.491,28.735z"/>
		<path fill="#857550" d="M57.438,13.68l0.024-0.002l0.005-0.002c0.256-0.012,0.51-0.025,0.771-0.037
			c0.308-0.01,0.542-0.271,0.529-0.569L58.288,0.572c-0.003-0.148-0.071-0.291-0.173-0.384c-0.101-0.101-0.225-0.156-0.396-0.153
			l-0.003,0.002c-0.333,0.007-0.67,0.027-1.01,0.044c-0.148,0.01-0.281,0.082-0.375,0.18c-0.104,0.111-0.154,0.258-0.146,0.406
			l0.702,12.494C56.906,13.451,57.147,13.68,57.438,13.68z"/>
		<path fill="#857550" d="M105.995,53.985l0.1,0.761c0.028,0.281,0.265,0.493,0.548,0.495l12.481-1.433
			c0.146-0.017,0.276-0.088,0.382-0.212c0.087-0.111,0.128-0.261,0.106-0.404c-0.032-0.323-0.07-0.643-0.121-0.996
			c-0.018-0.148-0.091-0.288-0.212-0.372c-0.097-0.076-0.246-0.106-0.41-0.111l-12.392,1.655
			C106.175,53.405,105.958,53.689,105.995,53.985z"/>
		<path fill="#857550" d="M71.264,15l0.174,0.046c0.174,0.047,0.352,0.086,0.51,0.131c0.047,0.013,0.096,0.025,0.16,0.022
			c0.104-0.005,0.197-0.024,0.266-0.071c0.133-0.067,0.231-0.192,0.266-0.337l3.256-12.073c0.084-0.288-0.092-0.599-0.385-0.68
			c-0.324-0.089-0.657-0.178-0.973-0.251c-0.283-0.076-0.603,0.103-0.682,0.401l-3.029,12.125c-0.035,0.133-0.01,0.276,0.064,0.399
			C70.972,14.855,71.107,14.961,71.264,15z"/>
		<path fill="#857550" d="M64.396,13.816c0.239,0.024,0.469,0.046,0.729,0.074l0.097,0.004c0.28,0.002,0.522-0.212,0.544-0.487
			l1.411-12.425c0.034-0.309-0.182-0.583-0.487-0.614c-0.335-0.037-0.67-0.074-0.995-0.101l-0.079-0.01
			c-0.285,0.002-0.502,0.212-0.529,0.505l-1.189,12.452c-0.01,0.146,0.035,0.291,0.129,0.403
			C64.117,13.732,64.256,13.804,64.396,13.816z"/>
		<path fill="#857550" d="M98.763,34.198c-0.035,0.135-0.013,0.292,0.071,0.431c0.138,0.202,0.278,0.418,0.406,0.625
			c0.078,0.131,0.204,0.22,0.345,0.253l0.133,0.013c0.101,0.002,0.199-0.029,0.291-0.086l10.598-6.642
			c0.123-0.081,0.213-0.199,0.248-0.347c0.032-0.135,0.006-0.278-0.076-0.417c-0.178-0.285-0.359-0.571-0.543-0.848
			c-0.07-0.123-0.205-0.212-0.336-0.241l-0.125-0.018c-0.104,0.003-0.215,0.035-0.306,0.092l-10.463,6.837
			C98.886,33.928,98.796,34.053,98.763,34.198z"/>
		<path fill="#857550" d="M63.002,106.459c-0.102-0.088-0.231-0.138-0.392-0.141l-0.003,0.003c-0.251,0.015-0.51,0.027-0.766,0.035
			c-0.141,0.007-0.285,0.071-0.379,0.177c-0.104,0.106-0.157,0.247-0.155,0.402l0.511,12.502c0.01,0.293,0.252,0.527,0.549,0.524
			l0.018,0.003h0.002c0.335-0.016,0.67-0.03,1.005-0.05c0.303-0.017,0.535-0.28,0.517-0.581l-0.714-12.486
			C63.185,106.699,63.117,106.556,63.002,106.459z"/>
		<path fill="#857550" d="M89.021,96.906c-0.096-0.116-0.221-0.185-0.369-0.207h-0.071c-0.123,0-0.241,0.04-0.343,0.113
			c-0.137,0.116-0.285,0.224-0.429,0.325l-0.2,0.147c-0.24,0.188-0.292,0.53-0.11,0.776l7.46,10.036
			c0.11,0.138,0.277,0.219,0.45,0.221c0.121-0.005,0.234-0.041,0.327-0.107c0.269-0.199,0.53-0.395,0.789-0.597
			c0.121-0.086,0.197-0.222,0.214-0.375c0.017-0.147-0.021-0.288-0.108-0.403L89.021,96.906z"/>
		<path fill="#857550" d="M69.585,105.398l-0.108,0.01c-0.256,0.053-0.51,0.105-0.766,0.158c-0.145,0.023-0.276,0.113-0.352,0.227
			c-0.084,0.123-0.113,0.273-0.084,0.419l2.387,12.267c0.018,0.141,0.101,0.273,0.227,0.359c0.088,0.069,0.199,0.098,0.318,0.098
			l0.103-0.012c0.323-0.057,0.646-0.125,0.974-0.195c0.292-0.061,0.482-0.352,0.416-0.652l-2.566-12.242
			C70.072,105.576,69.852,105.398,69.585,105.398z"/>
		<path fill="#857550" d="M94.183,92.188c-0.201-0.2-0.575-0.21-0.788,0.014l-0.541,0.554c-0.209,0.215-0.202,0.564,0.011,0.778
			l8.863,8.817c0.102,0.104,0.241,0.162,0.392,0.162c0.149-0.005,0.288-0.056,0.39-0.162l0.107-0.104
			c0.188-0.204,0.395-0.399,0.589-0.605c0.099-0.102,0.155-0.239,0.155-0.395c-0.003-0.141-0.062-0.289-0.168-0.391L94.183,92.188z"
			/>
		<path fill="#857550" d="M15.398,73.332c0.074-0.13,0.093-0.283,0.054-0.426l-0.114-0.387c-0.049-0.176-0.101-0.356-0.145-0.535
			c-0.038-0.14-0.131-0.268-0.262-0.343c-0.118-0.066-0.253-0.096-0.421-0.054L2.435,74.847c-0.138,0.032-0.264,0.125-0.334,0.256
			c-0.079,0.125-0.091,0.276-0.055,0.419c0.082,0.317,0.173,0.634,0.259,0.953l0.051,0.173c0.042,0.135,0.133,0.259,0.261,0.327
			c0.082,0.045,0.175,0.071,0.276,0.074c0.057-0.006,0.101-0.007,0.153-0.024l12.021-3.431
			C15.212,73.557,15.329,73.46,15.398,73.332z"/>
		<path fill="#857550" d="M83.203,100.817c-0.139-0.259-0.508-0.354-0.752-0.214c-0.227,0.123-0.455,0.241-0.68,0.369
			c-0.269,0.141-0.369,0.479-0.229,0.747l5.846,11.048c0.1,0.186,0.293,0.299,0.498,0.303c0.094-0.003,0.182-0.026,0.254-0.071
			c0.301-0.147,0.594-0.315,0.876-0.473c0.13-0.073,0.227-0.187,0.271-0.33c0.038-0.146,0.022-0.297-0.049-0.421L83.203,100.817z"/>
		<path fill="#857550" d="M98.585,86.733c-0.236-0.168-0.608-0.104-0.773,0.133l-0.064,0.086c-0.128,0.182-0.253,0.364-0.381,0.535
			c-0.09,0.113-0.131,0.268-0.111,0.42c0.021,0.146,0.105,0.281,0.227,0.362l10.083,7.396c0.094,0.069,0.214,0.106,0.335,0.106
			l0.071-0.011c0.151-0.02,0.28-0.099,0.367-0.219c0.196-0.267,0.395-0.532,0.586-0.8c0.081-0.126,0.121-0.282,0.094-0.414
			c-0.024-0.146-0.103-0.278-0.227-0.368L98.585,86.733z"/>
		<path fill="#857550" d="M119.452,60.585L106.91,60.36c-0.304,0.037-0.522,0.26-0.522,0.539c-0.008,0.252-0.012,0.506-0.024,0.752
			c-0.005,0.152,0.05,0.295,0.154,0.405c0.097,0.108,0.239,0.173,0.38,0.175l12.511,0.466h0.008c0.308-0.003,0.547-0.236,0.557-0.53
			c0.013-0.342,0.021-0.68,0.027-1.026C119.999,60.836,119.764,60.593,119.452,60.585z"/>
		<path fill="#857550" d="M118.699,69.461l-12.319-2.124l-0.105-0.01c-0.108-0.006-0.219,0.037-0.315,0.105
			c-0.124,0.084-0.205,0.22-0.222,0.357c-0.041,0.238-0.086,0.473-0.143,0.773c-0.053,0.303,0.146,0.592,0.442,0.65l12.3,2.302
			l0.099,0.003c0.261,0,0.497-0.189,0.539-0.445c0.065-0.328,0.124-0.653,0.179-0.98C119.204,69.793,118.995,69.511,118.699,69.461z
			"/>
		<path fill="#857550" d="M116.63,78.091l-11.881-3.919c-0.275-0.089-0.6,0.069-0.696,0.353c-0.071,0.241-0.16,0.486-0.247,0.734
			c-0.093,0.285,0.062,0.604,0.346,0.694l11.8,4.125c0.063,0.027,0.128,0.032,0.187,0.034c0.089,0.003,0.16-0.018,0.24-0.052
			c0.136-0.068,0.236-0.187,0.284-0.319c0.103-0.312,0.214-0.635,0.32-0.945C117.078,78.505,116.924,78.184,116.63,78.091z"/>
		<path fill="#857550" d="M102.139,80.687c-0.257-0.136-0.605-0.018-0.743,0.238l-0.089,0.176c-0.089,0.164-0.171,0.332-0.273,0.507
			c-0.064,0.132-0.077,0.286-0.032,0.419c0.044,0.141,0.133,0.256,0.271,0.326l11.065,5.841c0.077,0.041,0.166,0.06,0.259,0.06
			c0.052,0,0.104,0,0.165-0.025c0.139-0.039,0.254-0.135,0.328-0.273c0.154-0.291,0.305-0.588,0.46-0.884
			c0.064-0.138,0.071-0.286,0.034-0.417c-0.046-0.139-0.143-0.263-0.283-0.334L102.139,80.687z"/>
		<path fill="#857550" d="M76.148,103.485c-0.238,0.089-0.482,0.177-0.731,0.261c-0.136,0.049-0.251,0.148-0.319,0.293
			c-0.061,0.135-0.064,0.286-0.018,0.414l4.152,11.799c0.079,0.222,0.292,0.37,0.522,0.373c0.06-0.006,0.121-0.014,0.18-0.033
			c0.318-0.11,0.629-0.229,0.934-0.335c0.144-0.052,0.251-0.157,0.313-0.292c0.059-0.133,0.066-0.288,0.014-0.422l-4.337-11.729
			C76.76,103.521,76.402,103.387,76.148,103.485z"/>
		<path fill="#857550" d="M30.62,96.108c-0.02-0.147-0.091-0.28-0.207-0.384c-0.199-0.159-0.389-0.319-0.581-0.485
			c-0.104-0.084-0.244-0.128-0.407-0.128c-0.143,0.01-0.276,0.079-0.372,0.192l-8.135,9.499c-0.096,0.105-0.143,0.248-0.13,0.398
			c0.007,0.148,0.078,0.288,0.192,0.385c0.253,0.219,0.51,0.428,0.768,0.646c0.101,0.083,0.224,0.125,0.35,0.128
			c0.166-0.003,0.323-0.074,0.429-0.207l7.96-9.641C30.578,96.399,30.628,96.257,30.62,96.108z"/>
		<path fill="#857550" d="M25.564,91.331c0.007-0.143-0.047-0.284-0.14-0.395c-0.173-0.188-0.343-0.379-0.508-0.571
			c-0.094-0.113-0.229-0.185-0.345-0.192l-0.088-0.002c-0.124,0-0.246,0.041-0.347,0.135l-9.456,8.184
			c-0.227,0.202-0.253,0.555-0.057,0.786c0.217,0.252,0.433,0.5,0.655,0.744c0.096,0.107,0.234,0.175,0.394,0.189h0.02
			c0.14-0.002,0.268-0.052,0.367-0.143l9.317-8.345C25.488,91.632,25.555,91.485,25.564,91.331z"/>
		<path fill="#857550" d="M36.327,100.081c-0.035-0.141-0.123-0.267-0.252-0.341c-0.201-0.123-0.396-0.243-0.596-0.358L35.41,99.33
			c-0.259-0.158-0.615-0.074-0.768,0.178l-6.603,10.617c-0.084,0.121-0.109,0.278-0.074,0.422c0.037,0.139,0.125,0.263,0.249,0.342
			c0.276,0.178,0.559,0.343,0.837,0.512c0.089,0.055,0.185,0.085,0.291,0.079c0.187,0.003,0.369-0.101,0.473-0.265l6.447-10.714
			C36.339,100.379,36.366,100.229,36.327,100.081z"/>
		<path fill="#857550" d="M48.853,105.033c-0.248-0.059-0.5-0.125-0.748-0.188c-0.291-0.082-0.599,0.11-0.675,0.392l-3.222,12.08
			c-0.044,0.148-0.024,0.306,0.055,0.422c0.066,0.127,0.191,0.221,0.337,0.258c0.318,0.084,0.641,0.17,0.968,0.252
			c0.037,0.002,0.082,0.016,0.133,0.015c0.097,0,0.205-0.03,0.286-0.074c0.123-0.081,0.22-0.207,0.251-0.348l3.017-12.137
			C49.331,105.406,49.151,105.113,48.853,105.033z"/>
		<path fill="#857550" d="M21.287,85.878c0.032-0.145,0-0.301-0.077-0.421l-0.069-0.106c-0.121-0.18-0.232-0.362-0.347-0.544
			c-0.082-0.118-0.199-0.208-0.354-0.246l-0.121-0.013c-0.098-0.002-0.202,0.035-0.288,0.084L9.448,91.304
			c-0.118,0.076-0.212,0.205-0.247,0.342c-0.032,0.146-0.004,0.301,0.074,0.425l0.54,0.835c0.081,0.125,0.209,0.211,0.333,0.236
			l0.13,0.02c0.111-0.004,0.215-0.032,0.304-0.092l10.47-6.848C21.175,86.142,21.259,86.019,21.287,85.878z"/>
		<path fill="#857550" d="M17.875,79.81c0.05-0.138,0.04-0.293-0.024-0.426c-0.067-0.146-0.141-0.303-0.208-0.454l-0.106-0.243
			c-0.055-0.136-0.163-0.241-0.312-0.298c-0.128-0.05-0.276-0.052-0.417,0.005L5.351,83.438c-0.13,0.06-0.234,0.167-0.286,0.3
			c-0.057,0.141-0.052,0.289,0.01,0.427l0.404,0.903c0.06,0.128,0.17,0.234,0.303,0.283c0.059,0.024,0.133,0.035,0.205,0.035
			c0.079-0.003,0.15-0.011,0.229-0.05l11.369-5.214C17.718,80.061,17.821,79.956,17.875,79.81z"/>
		<path fill="#857550" d="M42.26,102.854c-0.236-0.092-0.471-0.19-0.707-0.301c-0.133-0.05-0.298-0.05-0.416,0.005
			c-0.136,0.049-0.244,0.154-0.306,0.289l-4.992,11.479c-0.049,0.133-0.052,0.289,0,0.422c0.054,0.133,0.163,0.241,0.291,0.297
			c0.312,0.136,0.62,0.271,0.926,0.395c0.069,0.033,0.143,0.045,0.222,0.042c0.064,0,0.139-0.013,0.202-0.042
			c0.138-0.057,0.244-0.162,0.308-0.297l4.776-11.566c0.054-0.131,0.054-0.281,0.002-0.427
			C42.501,103.021,42.395,102.916,42.26,102.854z"/>
		<path fill="#857550" d="M55.678,106.196c-0.249-0.024-0.5-0.047-0.808-0.081c-0.079,0.002-0.228,0.018-0.357,0.128
			c-0.115,0.086-0.185,0.219-0.199,0.367l-1.392,12.427c-0.039,0.296,0.182,0.576,0.485,0.609c0.332,0.041,0.673,0.076,1,0.107
			h0.059c0.136,0,0.261-0.043,0.354-0.129c0.108-0.092,0.178-0.218,0.199-0.373l1.157-12.445c0.02-0.147-0.027-0.298-0.123-0.413
			C55.96,106.282,55.832,106.211,55.678,106.196z"/>
	</g>
</g>
</svg>
